<svg xmlns="http://www.w3.org/2000/svg" width="512" height="512" viewBox="0 0 512 512" fill="none">
  <rect width="512" height="512" rx="64" fill="#1E213A"/>
  <path d="M256 112C196.8 112 144 164.8 144 224C144 283.2 196.8 336 256 336C315.2 336 368 283.2 368 224C368 164.8 315.2 112 256 112ZM256 306C209.6 306 174 270.4 174 224C174 177.6 209.6 142 256 142C302.4 142 338 177.6 338 224C338 270.4 302.4 306 256 306Z" fill="#E7E7EB"/>
  <path d="M256 164C224 164 198 190 198 224C198 258 224 284 256 284C288 284 314 258 314 224C314 190 288 164 256 164ZM256 254C238.4 254 224 239.6 224 224C224 208.4 238.4 194 256 194C273.6 194 288 208.4 288 224C288 239.6 273.6 254 256 254Z" fill="#E7E7EB"/>
  <path d="M378 368H134C124.6 368 116 376.6 116 386C116 395.4 124.6 404 134 404H378C387.4 404 396 395.4 396 386C396 376.6 387.4 368 378 368Z" fill="#3C47E9"/>
  <path d="M182 368C182 368 204 336 256 336C308 336 330 368 330 368H182Z" fill="#3C47E9"/>
</svg> 