<svg xmlns="http://www.w3.org/2000/svg" width="192" height="192" viewBox="0 0 192 192" fill="none">
  <rect width="192" height="192" rx="32" fill="#1E213A"/>
  <path d="M96 42C72.8 42 54 60.8 54 84C54 107.2 72.8 126 96 126C119.2 126 138 107.2 138 84C138 60.8 119.2 42 96 42ZM96 116C78.4 116 64 101.6 64 84C64 66.4 78.4 52 96 52C113.6 52 128 66.4 128 84C128 101.6 113.6 116 96 116Z" fill="#E7E7EB"/>
  <path d="M96 62C84 62 74 72 74 84C74 96 84 106 96 106C108 106 118 96 118 84C118 72 108 62 96 62ZM96 96C89.4 96 84 90.6 84 84C84 77.4 89.4 72 96 72C102.6 72 108 77.4 108 84C108 90.6 102.6 96 96 96Z" fill="#E7E7EB"/>
  <path d="M142 138H50C46.7 138 44 140.7 44 144C44 147.3 46.7 150 50 150H142C145.3 150 148 147.3 148 144C148 140.7 145.3 138 142 138Z" fill="#3C47E9"/>
  <path d="M68 138C68 138 76 126 96 126C116 126 124 138 124 138H68Z" fill="#3C47E9"/>
</svg> 